# xmcd
#
# Track frame offsets: 
#        151
#        17978
#        55033
#        73267
#
# Disc length: 1783 seconds
#
# Revision: 1
# Processed by: cddbd v1.5.2PL0 Copyright (c) Steve Scherf et al.
# Submitted via: ExactAudioCopy v1.0b1
#
DISCID=3306f504
DTITLE=Willy Chirino - La Fiesta de Cuba Libre (Bacardi)
DYEAR=1998
DGENRE=Salsa
TTITLE0=Cuba Libre
TTITLE1=Cuba Libre - Tony Moran's Extended Club Mix (Spanish)
TTITLE2=Cuba Libre - Tony Moran's Radio Mix (Spanish)
TTITLE3=Cuba Libre - Tony Moran's Dub Mix
EXTD=YEAR: 1998
EXTT0=
EXTT1=
EXTT2=
EXTT3=
PLAYORDER=
